<svg xmlns="http://www.w3.org/2000/svg" version="1.1" xmlns:xlink="http://www.w3.org/1999/xlink" width="512" height="512" x="0" y="0" viewBox="0 0 32 32" style="enable-background:new 0 0 512 512" xml:space="preserve" class=""><g><path d="m3.193 12.814.754 2.434h2.439l-1.973 1.504.754 2.434-1.974-1.505-1.973 1.505.754-2.434L0 15.248h2.439zM9.597 12.814l.753 2.434h2.44l-1.974 1.504.754 2.434-1.973-1.505-1.974 1.505.754-2.434-1.974-1.504h2.44zM16 12.814l.754 2.434h2.439l-1.973 1.504.754 2.434L16 17.681l-1.974 1.505.754-2.434-1.973-1.504h2.439zM22.403 12.814l.754 2.434h2.44l-1.974 1.504.754 2.434-1.974-1.505-1.973 1.505.754-2.434-1.974-1.504h2.44zM28.807 12.814l.754 2.434H32l-1.974 1.504.754 2.434-1.973-1.505-1.974 1.505.754-2.434-1.973-1.504h2.439z" fill="#000000" opacity="1" data-original="#000000"></path></g></svg>